<?xml version="1.0" standalone="no"?>
<!DOCTYPE svg PUBLIC "-//W3C//DTD SVG 20010904//EN"
 "http://www.w3.org/TR/2001/REC-SVG-20010904/DTD/svg10.dtd">
<svg version="1.0" xmlns="http://www.w3.org/2000/svg"
 width="2732.000000pt" height="2732.000000pt" viewBox="0 0 2732.000000 2732.000000"
 preserveAspectRatio="xMidYMid meet">

<g transform="translate(0.000000,2732.000000) scale(0.100000,-0.100000)"
fill="#000000" stroke="none">
<path d="M15210 24749 c-52 -5 -142 -20 -200 -34 -162 -38 -202 -45 -393 -60
-157 -13 -187 -19 -255 -46 -143 -58 -178 -68 -274 -78 -101 -10 -121 -17
-204 -73 -39 -27 -70 -38 -130 -47 -88 -15 -121 -29 -177 -77 -28 -23 -53 -34
-90 -39 -70 -10 -112 -28 -158 -69 -25 -23 -62 -42 -110 -56 -58 -18 -82 -31
-116 -66 -28 -28 -58 -47 -86 -55 -78 -21 -98 -32 -129 -70 -17 -21 -51 -46
-78 -58 -27 -12 -70 -40 -96 -62 -27 -23 -68 -50 -93 -61 -25 -10 -69 -41 -98
-69 -28 -27 -57 -49 -64 -49 -6 0 -39 -28 -74 -62 -34 -35 -75 -75 -91 -89
-16 -15 -41 -39 -56 -55 -15 -16 -59 -58 -99 -94 -40 -36 -86 -80 -103 -99
-17 -18 -44 -45 -60 -60 -16 -14 -40 -39 -55 -55 -14 -16 -49 -52 -77 -80 -28
-28 -59 -64 -68 -81 -10 -16 -36 -43 -58 -58 -21 -15 -47 -42 -56 -59 -9 -18
-38 -55 -63 -83 -26 -27 -56 -72 -68 -100 -12 -27 -37 -66 -55 -85 -19 -19
-45 -57 -59 -85 -14 -27 -44 -67 -66 -88 -31 -29 -45 -54 -60 -105 -16 -52
-30 -77 -65 -111 -33 -32 -48 -58 -60 -100 -9 -34 -34 -82 -61 -118 -35 -47
-48 -76 -60 -133 -10 -49 -25 -85 -43 -107 -64 -80 -70 -92 -77 -165 -7 -72
-27 -125 -81 -215 -17 -29 -31 -77 -44 -153 -13 -80 -28 -132 -53 -183 -47
-98 -54 -128 -66 -307 -19 -264 -20 -275 -26 -292 -13 -34 -44 -31 -113 10
-75 45 -83 55 -105 133 -9 31 -34 78 -55 105 -22 27 -48 70 -59 95 -12 27 -38
60 -63 80 -23 19 -49 48 -57 64 -8 17 -35 50 -59 75 -24 25 -59 64 -77 87
-119 155 -256 298 -359 375 -29 22 -71 57 -93 77 -22 20 -59 47 -81 60 -22 13
-49 36 -58 53 -10 16 -41 45 -70 63 -28 18 -66 49 -85 69 -23 24 -53 41 -90
52 -40 11 -70 29 -106 63 -33 32 -68 53 -105 65 -30 10 -78 36 -107 58 -38 29
-74 45 -130 60 -58 15 -89 29 -124 58 -56 48 -76 56 -162 65 -51 6 -79 15
-119 41 -87 55 -111 63 -254 84 -105 15 -153 27 -203 51 -36 17 -79 35 -96 41
-43 14 -502 37 -750 38 -247 0 -688 -17 -761 -30 -28 -5 -95 -27 -148 -50 -77
-33 -116 -43 -194 -51 -118 -12 -139 -19 -222 -69 -50 -30 -85 -42 -152 -54
-98 -17 -108 -21 -168 -71 -23 -19 -54 -38 -69 -41 -87 -19 -134 -38 -177 -73
-27 -21 -76 -47 -109 -57 -44 -14 -71 -31 -101 -62 -26 -27 -63 -51 -103 -67
-35 -13 -82 -42 -105 -63 -24 -22 -60 -48 -81 -58 -20 -9 -50 -35 -66 -57 -16
-22 -44 -49 -62 -60 -17 -11 -59 -44 -92 -73 -33 -30 -88 -79 -122 -110 -92
-83 -211 -204 -278 -284 -33 -40 -83 -95 -111 -123 -28 -29 -58 -65 -67 -82
-9 -16 -38 -51 -65 -77 -30 -29 -53 -62 -60 -86 -7 -22 -30 -62 -52 -89 -22
-28 -53 -79 -69 -114 -16 -35 -43 -77 -60 -94 -23 -21 -39 -52 -56 -111 -17
-53 -34 -89 -51 -105 -33 -30 -59 -86 -74 -164 -13 -66 -39 -124 -65 -145 -31
-25 -48 -75 -61 -172 -10 -77 -19 -109 -47 -160 -46 -81 -54 -115 -72 -290
-17 -163 -46 -321 -70 -388 -23 -66 -38 -224 -37 -415 0 -218 14 -343 57 -519
23 -92 40 -196 50 -302 16 -170 24 -203 74 -299 23 -44 34 -83 41 -145 15
-127 18 -135 65 -198 30 -40 50 -81 64 -129 22 -82 31 -99 77 -160 19 -25 34
-51 34 -58 0 -33 44 -128 80 -171 21 -25 44 -66 50 -91 8 -25 31 -64 55 -91
24 -26 56 -77 73 -112 16 -36 48 -83 71 -105 22 -21 41 -45 41 -52 0 -7 30
-44 66 -81 64 -66 120 -127 230 -248 50 -56 56 -68 65 -127 6 -36 9 -146 7
-246 -3 -172 -4 -182 -26 -203 l-23 -23 -799 -5 -799 -5 -28 -23 c-15 -12 -46
-35 -68 -50 -74 -50 -181 -168 -196 -214 -11 -35 -14 -280 -17 -1268 -3 -1231
0 -1387 32 -1448 18 -35 130 -139 187 -174 24 -15 57 -38 72 -50 l28 -23 787
-5 c433 -3 795 -9 805 -14 43 -21 47 -49 47 -359 0 -344 10 -427 67 -546 24
-51 39 -100 45 -151 15 -115 15 -116 63 -170 40 -45 50 -66 70 -155 4 -17 26
-48 51 -71 26 -24 55 -65 70 -99 14 -32 43 -79 66 -104 22 -25 47 -59 55 -76
14 -27 60 -78 161 -178 18 -17 58 -58 90 -89 31 -31 72 -64 90 -73 18 -9 50
-31 70 -50 21 -18 64 -45 97 -60 34 -15 72 -41 88 -61 35 -41 67 -59 127 -69
54 -9 88 -25 115 -55 33 -37 69 -49 183 -64 83 -11 127 -23 185 -50 132 -61
114 -59 647 -65 451 -5 498 -8 523 -24 15 -9 29 -27 32 -40 3 -12 6 -373 8
-802 3 -677 5 -787 19 -834 13 -46 28 -65 102 -136 66 -63 97 -85 130 -94 95
-24 243 -32 516 -30 157 2 294 0 306 -4 42 -14 47 -44 30 -168 -13 -95 -21
-122 -48 -164 -50 -80 -56 -95 -72 -187 -16 -91 -26 -117 -76 -184 -25 -33
-34 -58 -45 -136 -18 -116 -18 -118 -71 -195 -24 -35 -45 -78 -48 -95 -19
-133 -26 -157 -64 -216 -41 -64 -56 -108 -68 -206 -5 -46 -16 -72 -51 -123
-40 -59 -46 -76 -63 -176 -15 -91 -24 -117 -49 -151 -51 -67 -60 -89 -75 -189
-13 -94 -20 -110 -79 -194 -25 -37 -35 -72 -53 -200 -3 -17 -21 -55 -40 -83
-44 -65 -60 -108 -74 -207 -7 -56 -18 -88 -38 -117 -55 -79 -61 -93 -77 -189
-17 -108 -22 -123 -70 -182 -39 -48 -43 -60 -55 -163 -9 -83 -26 -126 -65
-174 -29 -35 -50 -95 -63 -181 -8 -49 -21 -87 -50 -135 -50 -84 -62 -126 -62
-227 1 -114 14 -163 59 -210 20 -22 49 -59 64 -82 15 -23 42 -50 59 -59 18 -9
53 -36 79 -60 38 -38 54 -46 105 -54 150 -25 242 -7 329 64 31 25 63 46 70 46
31 0 74 51 90 108 9 31 34 84 55 117 44 69 46 76 60 173 11 78 27 119 68 167
36 44 50 82 62 176 8 66 17 95 44 139 52 86 55 93 76 196 15 75 27 108 55 149
37 54 44 75 65 203 10 61 19 82 57 133 42 55 46 67 59 155 14 94 30 135 79
203 27 36 36 68 53 173 7 46 19 80 42 112 43 64 56 98 73 199 12 69 24 103 57
156 31 52 44 88 56 152 17 95 38 150 66 176 35 31 50 73 63 175 12 92 16 104
59 166 34 50 48 82 56 127 20 116 31 150 61 192 36 52 53 97 68 190 9 52 24
91 56 145 37 61 46 89 60 172 17 111 14 103 65 171 41 54 60 107 60 169 0 74
55 152 138 195 16 9 171 12 588 12 630 1 603 4 624 -68 7 -26 10 -693 10
-2123 0 -1448 3 -2104 11 -2145 6 -33 21 -77 35 -97 13 -21 33 -62 44 -92 15
-39 38 -70 88 -118 57 -55 76 -67 120 -77 145 -31 309 -21 408 24 45 20 63 39
140 141 l88 117 7 96 c5 53 8 1037 9 2188 0 1284 4 2101 9 2116 6 14 20 29 33
33 13 4 281 6 596 5 631 -2 624 -1 661 -62 11 -18 23 -51 26 -73 9 -54 35
-112 73 -165 30 -41 44 -89 58 -199 4 -40 17 -70 48 -115 53 -77 53 -79 71
-194 11 -73 20 -105 42 -135 15 -23 36 -52 45 -66 9 -14 22 -57 28 -96 16
-102 28 -134 72 -198 33 -47 41 -68 49 -130 13 -108 18 -123 49 -166 48 -66
61 -101 75 -194 13 -87 33 -132 85 -198 11 -14 25 -50 30 -80 6 -30 15 -81 21
-112 7 -38 24 -78 50 -117 33 -49 43 -77 59 -161 11 -56 27 -115 37 -130 67
-105 72 -117 82 -197 11 -88 19 -108 74 -190 38 -56 42 -71 52 -175 4 -45 14
-77 28 -98 12 -16 34 -47 49 -68 21 -28 31 -62 44 -141 17 -101 23 -116 83
-198 12 -17 25 -58 31 -103 15 -104 26 -136 71 -205 30 -47 41 -77 49 -135 16
-104 25 -130 69 -189 25 -34 44 -75 55 -118 28 -111 32 -115 191 -235 88 -66
120 -77 225 -77 145 -1 159 7 341 177 101 96 104 104 103 312 -1 194 -5 213
-78 312 -26 36 -37 64 -46 120 -6 40 -13 85 -16 100 -3 15 -25 57 -49 93 -34
53 -46 82 -55 138 -18 109 -26 136 -67 201 -28 46 -41 83 -55 155 -14 73 -27
109 -58 161 -45 75 -55 105 -65 197 -5 45 -16 76 -40 115 -69 109 -70 112 -90
260 -4 35 -18 64 -51 108 -42 55 -47 68 -64 167 -17 95 -24 115 -61 166 -35
50 -43 71 -55 149 -16 97 -18 102 -71 189 -26 42 -38 78 -48 144 -19 113 -21
122 -60 176 -51 71 -56 85 -70 186 -10 74 -19 103 -42 135 -56 81 -62 95 -78
187 -15 89 -42 162 -65 176 -21 13 -42 70 -52 137 -12 89 -31 141 -68 187 -41
53 -50 83 -51 164 -1 117 -27 110 408 112 206 1 397 7 433 13 58 10 69 16 102
53 21 23 57 54 81 69 49 31 57 46 92 187 l25 102 0 731 0 731 24 24 c42 42 78
45 531 45 237 0 462 5 502 10 49 6 95 21 143 45 53 27 100 41 193 56 131 23
161 34 220 84 21 18 59 38 85 45 59 16 97 35 142 71 19 15 59 37 88 50 39 16
61 34 83 65 16 24 44 51 62 60 18 9 52 36 77 60 177 172 209 205 228 236 12
19 39 49 62 66 22 18 49 50 59 70 10 20 37 52 59 69 32 26 45 47 62 99 15 44
36 82 61 109 45 48 55 71 64 148 5 39 19 76 42 115 55 89 62 113 78 254 8 73
26 221 40 328 15 120 25 244 25 323 0 121 1 129 24 152 44 44 79 47 580 43
524 -3 488 2 568 -77 82 -80 159 -145 203 -171 49 -28 181 -137 235 -191 19
-20 49 -44 67 -53 17 -9 48 -36 68 -61 21 -24 52 -54 71 -65 18 -12 43 -37 55
-56 12 -19 39 -46 60 -60 22 -13 62 -46 89 -72 68 -65 148 -134 190 -162 19
-13 62 -47 95 -75 33 -28 76 -61 95 -73 19 -11 52 -38 72 -60 20 -22 50 -45
67 -51 16 -7 41 -30 55 -52 15 -21 44 -50 66 -64 22 -14 51 -42 65 -64 14 -21
42 -47 61 -57 19 -10 48 -35 64 -56 16 -20 51 -51 77 -68 27 -18 54 -41 61
-51 7 -10 34 -33 60 -51 26 -17 74 -55 107 -83 33 -28 77 -62 97 -74 21 -12
47 -34 59 -49 11 -14 37 -38 58 -52 21 -14 61 -47 90 -75 28 -27 82 -79 120
-115 39 -36 92 -87 118 -114 26 -26 60 -54 75 -62 15 -8 49 -35 75 -61 52 -52
136 -119 211 -170 85 -57 316 -263 390 -346 13 -15 42 -32 64 -38 22 -5 75
-27 117 -47 l76 -37 1000 5 1000 5 80 36 c44 20 93 40 109 43 35 8 179 148
198 192 18 39 25 8288 8 8458 -13 131 -26 164 -76 202 -21 16 -59 50 -84 75
-43 44 -49 47 -125 58 -106 14 -2127 16 -2202 2 -73 -14 -111 -33 -163 -80
-25 -23 -49 -41 -53 -41 -5 0 -34 -24 -65 -53 -31 -30 -74 -64 -94 -76 -20
-12 -47 -38 -59 -57 -12 -19 -39 -46 -61 -60 -22 -14 -48 -40 -59 -59 -12 -19
-37 -44 -57 -56 -20 -13 -60 -43 -88 -68 -81 -73 -186 -155 -229 -181 -41 -24
-119 -89 -205 -172 -27 -26 -67 -59 -89 -72 -21 -14 -48 -40 -60 -59 -11 -19
-39 -46 -60 -60 -22 -15 -51 -42 -66 -61 -14 -18 -42 -45 -63 -59 -20 -13 -58
-44 -83 -68 -25 -24 -65 -56 -90 -71 -49 -31 -127 -92 -209 -166 -30 -27 -69
-57 -87 -66 -18 -9 -44 -32 -60 -52 -15 -20 -44 -47 -65 -61 -21 -13 -51 -41
-66 -63 -15 -21 -43 -48 -63 -59 -20 -12 -49 -37 -64 -56 -14 -20 -45 -47 -68
-62 -23 -14 -65 -46 -94 -72 -49 -44 -107 -91 -195 -156 -22 -16 -66 -53 -97
-81 -31 -28 -70 -58 -87 -67 -17 -9 -42 -33 -57 -54 -14 -21 -44 -49 -65 -62
-21 -13 -49 -39 -62 -58 -13 -19 -42 -47 -65 -63 -23 -16 -54 -45 -69 -64 -15
-20 -44 -45 -64 -55 -20 -11 -50 -33 -67 -50 -16 -18 -52 -46 -80 -63 -27 -17
-68 -48 -90 -69 -78 -74 -62 -72 -605 -71 -267 0 -493 1 -502 1 -10 1 -33 15
-53 32 l-35 31 0 123 c0 118 1 123 28 161 48 66 120 122 181 141 38 12 67 30
91 56 19 21 61 52 93 68 32 16 75 45 96 64 20 19 58 43 83 54 27 11 60 37 83
66 21 25 52 53 68 61 16 9 51 37 77 62 26 26 83 76 125 112 146 123 422 408
470 485 11 18 37 47 58 65 21 18 46 49 56 68 10 19 36 47 57 61 24 17 50 47
67 81 16 30 41 69 57 85 16 17 40 54 53 82 13 29 44 74 69 101 30 32 52 68 66
111 12 35 38 83 58 107 19 25 46 71 59 104 13 33 37 77 53 98 40 51 48 67 67
142 11 42 31 84 57 118 42 57 63 108 73 186 4 27 25 84 49 130 47 89 51 103
71 225 10 57 27 112 55 170 42 87 43 92 70 336 14 127 35 229 65 327 39 125
47 254 42 693 -5 433 -6 447 -71 655 -16 51 -29 133 -40 255 -18 194 -24 221
-66 305 -33 66 -46 110 -60 210 -8 60 -20 91 -56 154 -31 54 -49 98 -56 140
-16 104 -28 136 -62 174 -43 48 -51 65 -66 137 -14 69 -28 99 -75 161 -18 24
-40 67 -49 96 -10 35 -27 65 -51 88 -44 42 -58 69 -75 138 -10 43 -20 60 -55
89 -24 20 -51 54 -61 77 -10 22 -36 66 -59 96 -23 30 -54 78 -68 106 -14 28
-42 63 -61 78 -20 15 -45 45 -56 66 -11 21 -40 53 -64 70 -25 16 -54 47 -66
68 -12 20 -37 48 -56 61 -19 14 -40 34 -46 45 -18 33 -131 150 -247 256 -39
36 -100 93 -135 128 -36 34 -69 62 -75 62 -6 0 -23 18 -38 41 -14 22 -45 51
-67 64 -23 13 -59 42 -81 65 -22 22 -64 52 -94 65 -29 14 -71 41 -92 60 -21
18 -61 44 -88 56 -29 12 -61 36 -76 55 -30 39 -64 59 -119 70 -26 4 -57 23
-92 55 -41 37 -69 53 -124 69 -46 14 -85 33 -108 54 -50 45 -68 53 -146 67
-56 9 -75 18 -118 55 -51 43 -72 51 -196 69 -23 4 -64 21 -90 39 -79 55 -103
64 -227 81 -95 13 -138 24 -206 55 -97 43 -156 56 -314 65 -137 8 -206 18
-365 55 -69 16 -177 34 -240 39 -132 12 -509 12 -650 0z m625 -949 c350 -11
459 -24 565 -69 47 -20 119 -39 195 -52 99 -16 136 -27 210 -64 62 -31 116
-50 172 -60 90 -15 94 -17 171 -69 30 -20 72 -40 95 -46 83 -22 106 -32 150
-65 24 -18 73 -45 108 -60 35 -14 80 -41 99 -60 20 -19 64 -46 99 -60 35 -13
86 -44 115 -68 28 -24 69 -54 91 -66 23 -12 49 -35 60 -51 11 -16 37 -39 60
-51 22 -12 67 -47 100 -77 33 -30 87 -78 120 -108 133 -119 213 -197 275 -269
36 -42 91 -105 123 -139 31 -35 57 -68 57 -74 0 -7 23 -33 51 -59 28 -27 60
-66 71 -88 11 -22 37 -58 58 -80 21 -22 50 -69 64 -105 15 -35 42 -80 60 -100
19 -19 46 -61 60 -94 14 -32 42 -80 62 -108 23 -31 45 -79 59 -127 14 -50 37
-100 63 -137 30 -43 45 -78 56 -129 19 -91 37 -139 75 -207 23 -41 34 -77 42
-139 11 -86 27 -142 73 -263 39 -102 60 -292 76 -706 8 -220 2 -390 -26 -745
-14 -189 -17 -205 -51 -285 -41 -100 -57 -162 -73 -285 -9 -75 -17 -101 -51
-157 -26 -44 -46 -96 -60 -157 -16 -68 -31 -107 -64 -156 -28 -43 -49 -91 -60
-136 -13 -51 -30 -86 -60 -127 -24 -32 -52 -81 -63 -110 -11 -29 -38 -72 -59
-95 -22 -24 -48 -67 -59 -97 -12 -34 -33 -67 -57 -90 -21 -19 -49 -56 -63 -82
-13 -26 -42 -64 -65 -85 -23 -21 -49 -54 -59 -73 -10 -19 -30 -46 -45 -60 -15
-14 -43 -47 -63 -75 -96 -133 -436 -456 -530 -504 -21 -11 -54 -38 -75 -60
-21 -23 -58 -51 -83 -62 -24 -12 -54 -35 -66 -51 -13 -19 -48 -43 -93 -63 -39
-18 -91 -50 -116 -72 -25 -21 -64 -45 -87 -52 -23 -8 -64 -33 -91 -56 -30 -26
-68 -47 -97 -54 -96 -25 -112 -32 -165 -71 -29 -22 -69 -44 -89 -49 -19 -5
-66 -16 -103 -25 -38 -8 -95 -32 -128 -52 -49 -29 -81 -39 -189 -59 -72 -13
-155 -35 -187 -49 -93 -43 -168 -57 -388 -71 -115 -8 -290 -20 -387 -26 -151
-11 -214 -10 -435 5 -537 36 -519 34 -596 62 -39 14 -95 34 -122 44 -28 11
-103 28 -168 38 -100 17 -128 26 -185 60 -45 27 -93 46 -147 57 -89 20 -106
27 -184 79 -29 20 -58 36 -65 36 -37 0 -120 35 -163 69 -27 22 -75 51 -107 65
-31 14 -76 41 -98 61 -23 19 -66 44 -97 56 -34 12 -76 39 -108 70 -28 27 -57
49 -63 49 -6 0 -37 24 -68 54 -31 29 -70 60 -87 69 -16 9 -59 41 -95 72 -36
32 -96 85 -135 118 -128 112 -344 349 -415 456 -22 32 -53 69 -69 80 -16 11
-36 39 -45 62 -9 22 -36 60 -60 84 -25 26 -52 67 -65 101 -11 31 -40 78 -64
104 -23 26 -50 69 -59 96 -9 27 -35 74 -58 104 -22 30 -45 72 -51 95 -23 94
-42 141 -73 181 -32 42 -42 70 -66 184 -6 33 -27 80 -52 118 -37 57 -42 72
-59 190 -23 161 -24 162 -64 252 -42 92 -50 159 -65 515 -6 143 -13 265 -15
271 -5 17 13 426 30 644 14 190 15 198 55 297 27 68 45 134 56 204 21 145 21
146 66 222 30 50 45 92 59 159 14 68 26 100 47 127 40 50 58 87 71 149 14 65
25 88 62 127 16 17 39 61 53 98 17 46 40 84 69 116 27 29 51 67 62 100 10 31
36 73 61 102 24 27 53 67 64 88 11 22 35 52 54 68 19 15 44 46 57 68 12 22 41
60 65 85 23 25 95 103 159 173 65 71 142 148 171 172 29 23 70 59 91 79 81 79
159 144 190 160 18 9 46 34 64 56 17 21 50 48 73 59 23 10 62 36 86 57 25 20
74 50 110 66 36 16 81 46 101 66 23 25 54 43 92 55 31 10 78 34 104 54 53 40
86 55 161 73 30 7 73 27 97 45 61 47 71 51 164 69 46 8 100 24 120 34 20 10
59 31 86 45 35 19 82 31 158 42 77 10 136 26 205 54 123 49 211 61 532 70 135
4 261 8 280 9 19 1 175 -3 345 -8z m-8438 -2240 c43 -10 98 -21 123 -25 25 -4
71 -13 103 -21 31 -8 94 -19 140 -24 123 -15 174 -29 236 -66 33 -20 92 -41
144 -54 65 -15 103 -30 145 -59 32 -23 88 -49 129 -61 50 -14 86 -32 116 -58
24 -21 71 -48 105 -60 46 -17 70 -34 97 -67 21 -25 53 -50 78 -60 23 -9 60
-33 82 -54 22 -21 60 -52 85 -69 25 -16 56 -42 70 -57 14 -15 51 -45 82 -66
31 -21 67 -53 79 -71 13 -18 44 -54 69 -79 88 -89 167 -185 196 -238 16 -30
42 -63 57 -75 16 -12 44 -50 62 -86 18 -36 47 -78 64 -94 19 -18 39 -54 52
-93 11 -35 38 -87 60 -116 22 -28 44 -68 49 -87 5 -19 14 -57 21 -83 6 -26 25
-64 42 -85 41 -51 52 -82 72 -192 10 -54 34 -134 56 -186 48 -113 55 -165 70
-489 9 -198 9 -325 0 -530 -12 -293 -21 -353 -74 -490 -19 -49 -43 -134 -52
-189 -14 -78 -25 -108 -52 -150 -50 -73 -59 -94 -73 -161 -12 -63 -27 -94 -66
-135 -13 -14 -35 -59 -49 -99 -15 -46 -38 -88 -61 -113 -20 -22 -45 -61 -56
-87 -11 -25 -41 -66 -67 -91 -25 -25 -58 -66 -73 -90 -32 -53 -106 -138 -232
-270 -108 -112 -191 -184 -275 -240 -33 -22 -65 -49 -71 -60 -6 -11 -36 -33
-68 -49 -31 -16 -73 -47 -92 -68 -25 -26 -53 -44 -93 -56 -37 -12 -75 -34
-107 -62 -42 -38 -126 -75 -168 -75 -6 0 -34 -16 -63 -36 -70 -47 -99 -59
-183 -73 -45 -8 -99 -28 -155 -57 -83 -43 -92 -45 -231 -59 -80 -8 -184 -24
-231 -35 -262 -61 -584 -63 -854 -5 -60 13 -162 29 -225 35 -136 13 -207 31
-276 71 -31 17 -95 39 -157 52 -79 18 -114 31 -143 54 -53 41 -69 49 -144 68
-48 12 -76 27 -113 60 -31 29 -69 51 -104 62 -34 11 -74 33 -102 59 -25 23
-62 49 -81 59 -19 10 -58 38 -87 64 -28 25 -86 75 -128 111 -131 109 -305 282
-346 343 -22 31 -51 64 -65 74 -14 9 -36 37 -49 62 -12 25 -41 63 -64 83 -23
20 -50 58 -61 84 -11 26 -38 69 -60 97 -22 27 -47 74 -56 103 -8 29 -33 76
-56 105 -32 39 -47 72 -65 137 -12 47 -38 111 -56 141 -42 68 -53 103 -66 204
-7 47 -28 121 -55 190 -35 89 -46 134 -55 217 -28 258 -22 881 10 1055 6 33
26 98 45 143 19 46 45 137 58 201 19 96 31 130 64 185 22 37 47 97 57 137 12
49 28 82 52 111 42 50 51 67 69 127 7 26 32 71 55 101 22 30 51 78 64 105 13
28 39 63 60 79 21 16 46 49 57 73 11 25 42 70 70 101 28 31 83 92 121 136 39
43 79 89 90 102 10 14 44 42 75 63 32 21 68 51 82 66 14 15 51 45 83 67 31 21
64 49 73 63 8 13 36 33 62 45 26 12 67 41 92 65 25 24 71 55 103 69 32 14 77
41 99 61 28 23 68 43 124 60 46 14 85 29 88 34 19 30 92 63 182 82 67 14 117
32 154 54 70 41 104 52 215 65 95 12 359 65 377 76 46 28 570 24 695 -6z
m16661 -4493 c24 -8 43 -24 56 -47 l21 -35 3 -3530 c1 -2508 -1 -3538 -9
-3556 -21 -53 -30 -54 -489 -57 l-426 -3 -34 23 c-18 13 -36 34 -39 48 -3 14
-4 1610 -1 3547 l5 3521 30 44 c18 25 43 47 61 53 45 15 775 7 822 -8z"/>
<path d="M15340 22139 c-41 -5 -157 -18 -258 -30 -200 -22 -221 -27 -302 -75
-33 -20 -92 -41 -148 -54 -74 -18 -104 -30 -150 -64 -31 -23 -78 -50 -104 -60
-26 -10 -73 -38 -105 -62 -32 -25 -73 -52 -92 -60 -19 -8 -60 -39 -91 -68 -30
-29 -65 -56 -77 -60 -11 -4 -33 -24 -47 -46 -14 -22 -44 -51 -65 -66 -22 -14
-51 -43 -65 -64 -14 -21 -39 -47 -56 -57 -17 -10 -44 -39 -60 -64 -16 -26 -44
-59 -63 -73 -19 -15 -44 -48 -55 -74 -11 -26 -41 -73 -66 -105 -24 -32 -52
-79 -60 -105 -9 -26 -34 -69 -56 -96 -37 -45 -48 -71 -79 -191 -6 -22 -26 -65
-44 -95 -18 -30 -37 -64 -41 -75 -6 -18 -51 -344 -77 -565 -12 -99 -4 -302 17
-439 8 -53 21 -154 29 -224 19 -164 20 -169 66 -253 21 -39 49 -114 62 -167
19 -74 33 -106 61 -140 20 -25 48 -73 62 -108 15 -35 44 -83 66 -107 22 -24
46 -60 55 -80 8 -20 38 -61 66 -89 29 -29 78 -81 109 -115 74 -82 102 -110
188 -188 39 -36 90 -85 113 -108 23 -24 62 -54 87 -67 25 -13 60 -39 79 -59
23 -24 56 -43 99 -57 41 -14 81 -36 112 -64 41 -36 62 -46 124 -60 45 -10 99
-31 133 -52 80 -48 121 -62 232 -74 53 -6 166 -25 251 -44 260 -55 480 -54
725 3 72 17 176 36 233 42 116 12 157 25 227 68 47 28 72 37 172 62 25 6 64
29 94 55 32 28 75 52 114 65 40 13 73 33 96 56 19 20 55 47 81 60 26 13 58 38
70 55 13 17 37 41 55 53 42 29 173 156 253 245 36 40 86 94 112 119 26 26 56
67 66 92 11 25 36 60 55 79 20 19 46 59 58 90 12 31 34 71 48 90 14 18 34 44
44 57 10 13 29 64 41 113 13 49 37 113 54 143 40 71 58 139 72 263 6 55 20
145 32 200 28 135 32 484 6 615 -9 47 -24 146 -33 220 -22 175 -39 244 -75
300 -16 25 -41 89 -56 143 -21 77 -35 106 -65 141 -21 24 -48 67 -59 96 -11
29 -40 78 -64 109 -25 31 -52 74 -61 96 -9 22 -38 62 -65 90 -27 27 -80 83
-117 122 -37 40 -76 80 -86 90 -10 10 -46 46 -80 79 -34 34 -76 69 -93 77 -17
9 -43 32 -58 52 -15 19 -51 47 -79 62 -29 14 -69 41 -91 59 -21 18 -68 45
-104 59 -36 14 -84 42 -107 60 -46 38 -91 57 -181 75 -32 7 -90 29 -129 50
-87 47 -79 45 -342 76 -239 28 -496 38 -613 23z m551 -952 c41 -21 113 -45
160 -56 92 -20 118 -31 164 -69 17 -14 58 -37 91 -53 39 -17 72 -40 89 -64 16
-20 41 -43 56 -51 36 -18 175 -157 193 -193 8 -15 31 -40 52 -56 23 -17 46
-49 61 -84 14 -31 42 -79 64 -107 25 -33 44 -72 55 -115 8 -35 34 -103 56
-151 50 -111 62 -214 56 -488 l-4 -195 -46 -100 c-25 -55 -54 -135 -63 -177
-13 -60 -24 -87 -52 -120 -20 -24 -46 -66 -59 -93 -13 -28 -42 -68 -64 -90
-23 -22 -49 -53 -57 -69 -22 -41 -99 -122 -142 -148 -20 -11 -58 -43 -86 -69
-27 -26 -67 -55 -87 -64 -21 -8 -60 -35 -88 -60 -28 -25 -53 -45 -56 -45 -29
0 -171 -48 -225 -77 -60 -31 -83 -37 -167 -44 -130 -11 -374 -10 -496 1 -85 7
-109 14 -180 49 -44 22 -112 48 -151 57 -52 13 -79 27 -110 55 -22 20 -64 48
-93 62 -29 14 -71 44 -95 66 -23 22 -77 73 -121 113 -43 40 -90 91 -104 113
-14 22 -42 55 -62 72 -21 18 -45 51 -54 74 -9 23 -34 62 -55 88 -44 53 -47 60
-67 156 -8 38 -32 105 -53 150 -46 98 -52 138 -52 370 0 231 10 302 55 402 19
44 41 104 47 134 14 66 32 102 76 154 18 21 39 57 45 79 8 25 33 60 70 96 32
32 58 62 58 68 0 16 150 165 188 188 18 10 43 34 54 52 14 24 42 44 92 68 39
19 89 48 111 64 31 23 64 35 139 50 65 13 118 31 154 52 73 41 126 47 402 44
l226 -3 75 -36z"/>
<path d="M6823 20235 c-39 -7 -100 -22 -135 -34 -34 -11 -105 -27 -157 -36
-110 -19 -152 -34 -204 -76 -21 -17 -69 -41 -108 -54 -47 -16 -86 -38 -113
-63 -22 -21 -62 -48 -88 -61 -28 -13 -56 -36 -68 -56 -12 -19 -37 -44 -56 -56
-20 -12 -49 -40 -65 -62 -16 -22 -44 -51 -63 -63 -19 -13 -44 -40 -57 -61 -12
-21 -41 -58 -64 -83 -23 -25 -50 -69 -61 -99 -10 -30 -40 -77 -66 -107 -31
-36 -49 -67 -53 -92 -13 -83 -28 -129 -55 -178 -16 -28 -36 -80 -45 -116 -23
-101 -38 -354 -30 -528 10 -234 20 -291 70 -400 24 -52 49 -124 55 -160 14
-78 22 -94 69 -140 23 -23 46 -60 60 -100 16 -43 37 -77 61 -100 21 -19 48
-54 60 -78 12 -25 36 -52 56 -64 19 -11 48 -40 65 -64 16 -24 47 -53 67 -64
20 -10 52 -37 70 -59 18 -22 53 -49 77 -60 25 -11 70 -40 100 -65 30 -24 78
-52 107 -61 29 -10 78 -34 108 -55 65 -44 97 -55 205 -70 44 -6 136 -25 205
-43 112 -28 141 -31 275 -31 135 -1 160 2 247 27 53 15 152 36 221 46 94 14
137 25 169 45 55 33 130 69 190 90 25 9 66 34 90 55 24 21 66 50 94 64 28 14
61 41 75 61 13 19 41 45 62 56 21 12 49 39 63 60 14 21 43 50 65 64 21 14 47
43 58 64 10 20 37 51 59 69 30 24 45 47 60 93 12 34 39 82 60 108 50 60 57 75
72 147 7 33 32 98 56 145 59 113 66 168 66 520 0 366 -8 437 -67 555 -24 50
-49 115 -56 145 -14 67 -31 102 -76 157 -19 24 -41 63 -49 88 -10 28 -31 59
-58 82 -24 21 -51 52 -62 68 -22 35 -191 205 -203 205 -5 0 -20 17 -35 39 -15
21 -44 47 -64 57 -20 10 -57 38 -82 61 -32 30 -67 50 -117 67 -39 13 -96 43
-126 66 -50 37 -67 43 -178 65 -68 13 -177 37 -242 54 -110 29 -130 31 -280
30 -89 0 -194 -7 -234 -14z m471 -949 c25 -8 63 -28 83 -46 20 -18 57 -41 82
-52 54 -23 156 -115 191 -173 14 -23 43 -59 66 -81 35 -33 44 -51 59 -114 10
-41 29 -106 43 -145 14 -38 27 -102 29 -140 5 -62 1 -83 -30 -172 -19 -56 -40
-126 -47 -156 -9 -46 -20 -64 -65 -111 -30 -31 -55 -61 -55 -66 0 -6 -36 -46
-80 -91 -53 -52 -94 -85 -121 -94 -22 -8 -59 -29 -81 -46 -61 -49 -108 -61
-263 -66 -188 -7 -270 6 -355 57 -36 22 -88 48 -115 60 -32 13 -59 33 -74 56
-14 20 -44 49 -68 65 -24 17 -52 48 -64 72 -12 23 -38 60 -59 82 -29 32 -39
54 -49 105 -7 36 -22 94 -34 130 -30 90 -30 216 0 325 13 44 28 106 34 138 9
49 19 68 60 113 27 30 49 59 49 64 0 23 161 171 207 191 27 11 63 32 80 45 49
37 97 54 182 64 101 12 337 3 395 -14z"/>
</g>
</svg>
